<svg width="22" height="22" viewBox="0 0 22 22" fill="none" xmlns="http://www.w3.org/2000/svg">
<path fill-rule="evenodd" clip-rule="evenodd" d="M15.7559 13.155C15.4863 13.0202 14.1645 12.3706 13.9184 12.2801C13.6723 12.1905 13.4932 12.1462 13.3132 12.4158C13.134 12.6836 12.6192 13.2898 12.4627 13.4689C12.3053 13.649 12.1488 13.6707 11.8801 13.5368C11.6113 13.4011 10.7446 13.1179 9.71774 12.2023C8.91886 11.4894 8.37874 10.6091 8.22222 10.3394C8.0657 10.0707 8.20503 9.92508 8.33983 9.79118C8.46107 9.67085 8.60854 9.47724 8.74334 9.32072C8.87815 9.16329 8.92248 9.05111 9.01205 8.87107C9.10252 8.69193 9.05729 8.53541 8.98943 8.40061C8.92248 8.2658 8.38507 6.94217 8.1607 6.40386C7.94265 5.88002 7.72099 5.95149 7.55633 5.94244C7.39891 5.93521 7.21977 5.9334 7.04064 5.9334C6.8615 5.9334 6.57017 6.00035 6.32409 6.26996C6.07709 6.53866 5.38316 7.18917 5.38316 8.51279C5.38316 9.83551 6.3458 11.1139 6.48061 11.2939C6.61541 11.4731 8.37602 14.1891 11.073 15.3535C11.7154 15.6303 12.2157 15.7959 12.6056 15.9189C13.2498 16.1243 13.8361 16.0954 14.2993 16.0257C14.815 15.9488 15.8898 15.3752 16.1142 14.7473C16.3377 14.1194 16.3377 13.5811 16.2707 13.4689C16.2038 13.3567 16.0246 13.2898 15.755 13.155H15.7559ZM10.8505 19.8527H10.8468C9.24496 19.853 7.67248 19.4224 6.29423 18.606L5.96853 18.4124L2.58301 19.3008L3.48684 16.0004L3.27423 15.662C2.37867 14.2364 1.90473 12.5866 1.90718 10.9031C1.90899 5.9723 5.92057 1.96071 10.8541 1.96071C13.2426 1.96071 15.4881 2.89259 17.1764 4.58263C18.0091 5.41189 18.6691 6.39804 19.1182 7.48402C19.5673 8.57 19.7966 9.73425 19.7929 10.9094C19.791 15.8402 15.7795 19.8527 10.8505 19.8527ZM18.4611 3.29881C17.4642 2.29539 16.2782 1.49978 14.9716 0.958088C13.665 0.416391 12.264 0.139378 10.8496 0.143103C4.91994 0.143103 0.0922828 4.96986 0.0904733 10.9022C0.0895686 12.7985 0.584458 14.6496 1.52629 16.2808L0 21.8567L5.70344 20.3603C7.28118 21.2199 9.04923 21.6703 10.8459 21.6703H10.8505C16.7801 21.6703 21.6077 16.8436 21.6096 10.9103C21.6139 9.49649 21.3379 8.0958 20.7975 6.7893C20.2571 5.48281 19.463 4.29644 18.4611 3.29881Z" fill="#959595"/>
</svg>
