<svg width="23" height="22" viewBox="0 0 23 22" fill="none" xmlns="http://www.w3.org/2000/svg">
<path fill-rule="evenodd" clip-rule="evenodd" d="M11.4664 0.143066C5.47257 0.143066 0.609619 5.00602 0.609619 10.9999C0.609619 16.9938 5.47257 21.8567 11.4664 21.8567C17.4485 21.8567 22.3233 16.9938 22.3233 10.9999C22.3233 5.00602 17.4485 0.143066 11.4664 0.143066ZM18.6374 5.14715C19.9741 6.77508 20.7138 8.81124 20.7336 10.9176C20.4278 10.8587 17.3662 10.2345 14.2811 10.6235C14.2096 10.4697 14.1508 10.305 14.0802 10.1404C13.8883 9.68748 13.6844 9.23978 13.4686 8.79776C16.8831 7.40809 18.4374 5.40681 18.6374 5.14715ZM11.4664 1.74535C13.8215 1.74535 15.9765 2.62747 17.6132 4.07595C17.4485 4.31118 16.0471 6.18398 12.7503 7.41985C11.2303 4.62965 9.54749 2.34429 9.28784 1.99144C10.002 1.82469 10.7331 1.7418 11.4664 1.74445V1.74535ZM7.52179 2.61571C7.76879 2.94594 9.41721 5.24215 10.9598 7.97355C6.62611 9.12799 2.79908 9.10446 2.38742 9.10446C2.98817 6.23103 4.93154 3.84072 7.52179 2.61571ZM2.18748 11.0116V10.7294C2.58827 10.7411 7.08571 10.7999 11.7143 9.41027C11.9849 9.92868 12.2318 10.4579 12.4671 10.9881C12.3495 11.0234 12.2201 11.0587 12.1025 11.094C7.32185 12.6365 4.77773 16.8517 4.56602 17.2055C3.03468 15.5059 2.1873 13.2993 2.18748 11.0116ZM11.4664 20.2788C9.32312 20.2788 7.34537 19.5487 5.77927 18.3246C5.94394 17.9826 7.82759 14.3555 13.0561 12.5307C13.0796 12.5189 13.0922 12.5189 13.1149 12.5072C14.4222 15.8864 14.9515 18.7245 15.0935 19.537C13.9744 20.0201 12.7503 20.2788 11.4664 20.2788ZM16.6361 18.6892C16.542 18.1238 16.0471 15.4159 14.8339 12.0829C17.7426 11.6242 20.2858 12.3778 20.6043 12.4837C20.2035 15.0621 18.7197 17.2878 16.6361 18.6892Z" fill="#959595"/>
</svg>
