<svg width="28" height="22" viewBox="0 0 28 22" fill="none" xmlns="http://www.w3.org/2000/svg">
<path d="M27.0334 2.7187C26.0511 3.15395 24.996 3.44804 23.8867 3.58096C25.0312 2.89608 25.8876 1.81817 26.2958 0.54834C25.2205 1.18708 24.0435 1.63669 22.8162 1.87761C21.9908 0.996369 20.8976 0.412267 19.7063 0.215991C18.515 0.0197149 17.2922 0.222246 16.2277 0.792141C15.1633 1.36204 14.3168 2.26741 13.8197 3.3677C13.3225 4.46798 13.2025 5.70162 13.4783 6.87709C11.2994 6.76768 9.16776 6.20133 7.22184 5.2148C5.27592 4.22826 3.55919 2.84358 2.18305 1.15063C1.71251 1.96231 1.44195 2.90339 1.44195 3.90563C1.44142 4.80789 1.66361 5.69632 2.0888 6.49211C2.51398 7.28789 3.12902 7.96643 3.87934 8.46751C3.00917 8.43982 2.15819 8.20469 1.39725 7.7817V7.85228C1.39716 9.11772 1.83489 10.3442 2.63616 11.3237C3.43743 12.3031 4.55288 12.9752 5.79326 13.2258C4.98603 13.4443 4.13971 13.4765 3.31822 13.3199C3.66818 14.4088 4.34987 15.3609 5.26786 16.0431C6.18585 16.7253 7.29418 17.1033 8.43769 17.1243C6.49652 18.6481 4.09918 19.4747 1.63134 19.4711C1.19419 19.4712 0.757404 19.4457 0.323242 19.3946C2.82825 21.0052 5.74425 21.86 8.72236 21.8567C18.8037 21.8567 24.3148 13.507 24.3148 6.26539C24.3148 6.03012 24.309 5.7925 24.2984 5.55723C25.3704 4.78198 26.2957 3.82199 27.031 2.72223L27.0334 2.7187Z" fill="#959595"/>
</svg>
