<svg width="23" height="22" viewBox="0 0 23 22" fill="none" xmlns="http://www.w3.org/2000/svg">
<path d="M21.4432 0H1.20324C0.716492 0 0.323242 0.39325 0.323242 0.88V21.12C0.323242 21.6068 0.716492 22 1.20324 22H21.4432C21.93 22 22.3232 21.6068 22.3232 21.12V0.88C22.3232 0.39325 21.93 0 21.4432 0ZM6.84899 18.7468H3.58474V8.24725H6.84899V18.7468ZM5.21824 6.81175C4.84404 6.81175 4.47824 6.70079 4.1671 6.49289C3.85597 6.28499 3.61346 5.9895 3.47026 5.64379C3.32706 5.29807 3.28959 4.91765 3.3626 4.55064C3.4356 4.18363 3.6158 3.84651 3.8804 3.5819C4.145 3.3173 4.48212 3.13711 4.84913 3.0641C5.21614 2.9911 5.59656 3.02857 5.94228 3.17177C6.288 3.31497 6.58349 3.55747 6.79138 3.86861C6.99928 4.17975 7.11024 4.54555 7.11024 4.91975C7.10749 5.96475 6.26049 6.81175 5.21824 6.81175ZM19.07 18.7468H15.8085V13.64C15.8085 12.4218 15.7865 10.857 14.1117 10.857C12.415 10.857 12.1537 12.1825 12.1537 13.552V18.7468H8.89499V8.24725H12.0245V9.68275H12.0685C12.503 8.85775 13.5672 7.986 15.1567 7.986C18.4622 7.986 19.07 10.1612 19.07 12.9882V18.7468Z" fill="#959595"/>
</svg>
