<?xml version="1.0" standalone="no"?>
<!DOCTYPE svg PUBLIC "-//W3C//DTD SVG 20010904//EN"
 "http://www.w3.org/TR/2001/REC-SVG-20010904/DTD/svg10.dtd">
<svg version="1.0" xmlns="http://www.w3.org/2000/svg"
 width="1200.000000pt" height="1200.000000pt" viewBox="0 0 1200.000000 1200.000000"
 preserveAspectRatio="xMidYMid meet">

<g transform="translate(0.000000,1200.000000) scale(0.100000,-0.100000)"
fill="#000000" stroke="none">
<path d="M5424 9271 c61 -61 114 -107 120 -104 6 3 7 2 3 -2 -10 -11 143 -166
156 -158 6 3 7 2 4 -4 -8 -13 127 -146 138 -136 4 4 5 3 2 -3 -3 -6 30 -46 73
-89 67 -67 81 -77 94 -66 9 7 13 18 9 24 -3 5 -1 7 4 4 13 -8 46 27 36 38 -5
4 -3 5 3 2 14 -8 367 346 357 358 -5 6 -4 7 1 2 12 -10 207 183 199 196 -3 6
-2 7 4 4 6 -4 21 5 33 18 l23 25 -684 0 -684 0 109 -109z"/>
<path d="M3580 7362 l0 -2012 248 0 247 0 123 123 122 122 0 1526 0 1526 -273
269 c-150 148 -317 311 -370 363 l-97 95 0 -2012z"/>
<path d="M8047 9002 l-367 -367 0 -1638 0 -1637 370 0 370 0 0 2005 c0 1103
-1 2005 -3 2005 -1 0 -167 -165 -370 -368z"/>
<path d="M4600 7187 c0 -636 3 -1157 7 -1157 4 0 171 163 370 362 l363 363 0
425 0 425 -370 370 -370 370 0 -1158z"/>
<path d="M4869 5841 l-484 -480 488 0 487 -1 0 480 c0 264 -2 480 -3 480 -2 0
-222 -216 -488 -479z"/>
<path d="M9463 4433 c-30 -6 -63 -49 -63 -83 0 -42 44 -80 92 -80 30 0 46 7
69 29 31 32 34 45 19 86 -9 23 -65 58 -87 54 -4 -1 -18 -4 -30 -6z"/>
<path d="M5930 4035 l0 -355 70 0 c68 0 70 1 70 25 0 31 1 31 44 1 64 -43 156
-44 244 -3 151 70 179 312 51 434 -47 45 -98 63 -172 63 -49 0 -75 -6 -111
-25 l-46 -24 0 119 0 120 -75 0 -75 0 0 -355z m348 25 c78 -48 82 -179 7 -238
-33 -26 -102 -29 -144 -7 -64 33 -82 165 -30 221 44 48 111 58 167 24z"/>
<path d="M9035 4283 c1 -60 -1 -113 -3 -120 -3 -8 -13 -5 -34 10 -45 33 -157
36 -226 7 -113 -49 -170 -171 -142 -304 28 -138 167 -229 301 -198 28 7 64 21
80 33 l29 20 0 -25 c0 -26 1 -26 75 -26 l75 0 0 355 0 355 -78 0 -77 0 0 -107z
m-64 -219 c44 -22 73 -92 64 -152 -10 -68 -57 -112 -119 -112 -92 0 -136 46
-136 144 0 44 5 60 27 86 43 51 106 65 164 34z"/>
<path d="M6811 4349 c-111 -32 -176 -129 -157 -233 15 -78 88 -128 244 -166
100 -24 142 -49 142 -84 0 -78 -159 -95 -296 -32 l-55 26 -26 -57 c-25 -54
-25 -57 -8 -70 77 -55 275 -80 379 -48 113 36 178 132 156 231 -19 83 -71 119
-229 159 -131 33 -151 44 -151 90 0 52 34 70 130 69 55 0 88 -6 124 -22 26
-12 52 -20 56 -17 13 8 42 95 36 110 -3 8 -35 23 -72 34 -72 23 -211 27 -273
10z"/>
<path d="M1720 4015 l0 -335 75 0 75 0 2 190 3 190 94 -156 94 -155 36 3 c34
3 38 8 131 162 l95 160 3 -197 2 -197 75 0 75 0 0 335 0 335 -67 0 -68 0 -120
-205 c-66 -112 -122 -204 -125 -204 -3 0 -60 91 -126 202 l-121 202 -67 3 -66
3 0 -336z"/>
<path d="M4003 4343 c2 -4 52 -155 111 -335 l107 -328 84 0 84 0 73 220 c40
121 75 220 78 220 3 0 37 -98 76 -217 l70 -218 85 -3 85 -3 107 329 c59 180
107 331 107 335 0 4 -33 7 -73 7 l-74 0 -73 -230 c-41 -126 -77 -230 -81 -230
-3 0 -11 19 -18 43 -7 23 -40 126 -73 230 l-61 187 -73 0 -72 0 -77 -231 c-42
-126 -79 -228 -82 -225 -3 2 -37 105 -77 228 l-72 223 -83 3 c-45 2 -81 -1
-78 -5z"/>
<path d="M7410 4250 l0 -60 -40 0 -40 0 0 -60 0 -60 40 0 40 0 0 -136 c0 -151
10 -189 61 -225 47 -33 127 -45 190 -28 60 16 63 26 35 93 -14 34 -16 34 -46
23 -25 -9 -36 -9 -58 4 -27 15 -27 15 -30 142 l-3 127 66 0 66 0 -3 58 -3 57
-62 3 -63 3 0 59 0 60 -75 0 -75 0 0 -60z"/>
<path d="M2795 4182 c-28 -9 -59 -22 -70 -29 -19 -11 -19 -12 5 -62 13 -28 24
-51 26 -51 1 0 21 9 45 20 29 13 66 20 107 20 54 0 67 -4 87 -25 14 -13 25
-35 25 -48 0 -25 -1 -25 -112 -29 -83 -3 -122 -9 -146 -21 -96 -52 -96 -198 0
-257 66 -40 184 -35 242 11 14 11 27 16 27 10 1 -6 2 -17 3 -23 1 -9 25 -14
74 -16 l74 -3 -4 183 c-3 165 -5 187 -25 228 -24 48 -69 85 -124 100 -52 15
-178 11 -234 -8z m233 -313 c9 -80 -141 -130 -186 -61 -14 22 -14 27 -1 51 17
30 50 40 129 38 51 -2 55 -4 58 -28z"/>
<path d="M3363 4185 c4 -8 45 -66 93 -130 62 -83 84 -119 77 -128 -60 -75
-183 -238 -183 -242 0 -3 35 -5 79 -5 l79 0 56 75 c31 42 60 74 64 71 5 -3 30
-36 58 -75 l49 -71 83 0 c45 0 82 2 82 5 0 3 -40 59 -88 123 -49 64 -91 122
-95 129 -4 6 23 50 61 100 37 48 81 105 96 126 l28 37 -80 0 -80 0 -56 -75
c-31 -41 -58 -75 -59 -75 -2 0 -27 34 -56 75 l-54 75 -80 0 c-65 0 -78 -3 -74
-15z"/>
<path d="M5335 4176 c-102 -48 -149 -122 -150 -236 0 -65 4 -82 30 -128 69
-126 246 -175 395 -111 27 12 55 28 63 37 14 15 11 21 -22 60 l-38 43 -34 -20
c-47 -27 -98 -35 -146 -22 -46 12 -93 54 -93 82 0 18 11 19 190 19 212 0 194
-7 190 75 -3 62 -28 111 -80 158 -56 51 -103 67 -191 67 -46 0 -78 -7 -114
-24z m185 -101 c28 -14 60 -60 60 -85 0 -6 -45 -10 -126 -10 l-125 0 6 23 c9
28 44 67 70 77 32 14 84 11 115 -5z"/>
<path d="M7899 4188 c-6 -69 2 -360 11 -382 28 -75 85 -118 172 -131 52 -8
147 15 168 40 18 22 30 18 30 -10 0 -24 2 -25 70 -25 l70 0 0 260 0 260 -75 0
-75 0 0 -144 c0 -80 -5 -157 -11 -173 -25 -66 -90 -98 -149 -73 -52 22 -55 31
-60 214 l-5 171 -72 3 c-54 2 -73 0 -74 -10z"/>
<path d="M9420 3940 l0 -260 75 0 75 0 0 260 0 260 -75 0 -75 0 0 -260z"/>
<path d="M9920 4180 c-56 -26 -105 -72 -133 -125 -16 -30 -22 -58 -22 -115 0
-66 4 -82 31 -130 107 -188 406 -182 504 10 64 125 11 287 -114 353 -62 31
-205 35 -266 7z m184 -115 c84 -40 93 -194 14 -249 -14 -10 -44 -16 -77 -16
-48 0 -57 3 -86 34 -49 52 -55 116 -18 189 26 51 106 71 167 42z"/>
</g>
</svg>
